# xmcd
#
# Track frame offsets: 
#        182
#        12567
#        24940
#        35407
#        48505
#        62545
#        75150
#        90240
#        101087
#        113585
#        126205
#        140975
#        151160
#        162232
#        178192
#        188815
#        200357
#        214300
#        228122
#        239690
#        262427
#
# Disc length: 3678 seconds
#
# Revision: 7
# Processed by: cddbd v1.5.2PL0 Copyright (c) Steve Scherf et al.
# Submitted via: ExactAudioCopy v1.0b3
#
DISCID=1e0e5c15
DTITLE=Elmore James - The Sky Is Crying: The History of Elmore James
DYEAR=1993
DGENRE=Blues
TTITLE0=Dust My Broom
TTITLE1=The Sun Is Shining
TTITLE2=Hawaiian Boogie
TTITLE3=Sho' Nuff I Do
TTITLE4=Please Find My Baby
TTITLE5=T.V. Mama – with Joe Turner and His Blues Kings
TTITLE6=My Best Friend
TTITLE7=Madison Blues
TTITLE8=Cry For Me Baby
TTITLE9=The Sky Is Crying
TTITLE10=Sunny Land
TTITLE11=I Can't Hold Out
TTITLE12=Look On Yonder Wall
TTITLE13=I Need You
TTITLE14=Done Somebody Wrong
TTITLE15=Shake Your Moneymaker
TTITLE16=The 12 Year Old Boy
TTITLE17=It Hurts Me Too
TTITLE18=Rollin and Tumblin
TTITLE19=Something Inside Me
TTITLE20=Standing At The Crossroads
EXTD=
EXTT0=
EXTT1=
EXTT2=
EXTT3=
EXTT4=
EXTT5=
EXTT6=
EXTT7=
EXTT8=
EXTT9=
EXTT10=
EXTT11=
EXTT12=
EXTT13=
EXTT14=
EXTT15=
EXTT16=
EXTT17=
EXTT18=
EXTT19=
EXTT20=
PLAYORDER=
